<svg width="12" height="10" viewBox="0 0 12 10" fill="none" xmlns="http://www.w3.org/2000/svg">
<path d="M11.4787 0.341797H10.1046C9.80581 0.341797 9.52163 0.485351 9.34585 0.731445L4.74037 7.11816L2.65443 4.22363C2.47865 3.98047 2.1974 3.83399 1.89564 3.83399H0.521612C0.331182 3.83399 0.219853 4.05078 0.331182 4.20606L3.98158 9.26856C4.06782 9.38892 4.1815 9.48699 4.3132 9.55465C4.44491 9.6223 4.59084 9.6576 4.73891 9.6576C4.88697 9.6576 5.03291 9.6223 5.16461 9.55465C5.29631 9.48699 5.41 9.38892 5.49623 9.26856L11.6662 0.713868C11.7804 0.558594 11.6691 0.341797 11.4787 0.341797V0.341797Z" fill="white"/>
</svg>
