<svg width="20" height="20" viewBox="0 0 20 20" fill="none" xmlns="http://www.w3.org/2000/svg">
<path d="M8.21359 17.4975L8.21359 1.96397C8.21359 1.86576 8.13323 1.7854 8.03501 1.7854L6.69573 1.7854C6.59751 1.7854 6.51716 1.86576 6.51716 1.96397L6.51716 15.4729L2.43233 12.2519C2.31626 12.1604 2.14216 12.243 2.14216 12.3925L2.14216 14.0108C2.14216 14.1202 2.19126 14.2229 2.27832 14.2921L7.05734 18.06C7.52609 18.4283 8.21359 18.0957 8.21359 17.4975V17.4975ZM13.4814 18.0354L13.4814 4.52647L17.5663 7.74745C17.6823 7.83897 17.8564 7.75638 17.8564 7.60683L17.8564 5.98853C17.8564 5.87915 17.8073 5.77647 17.7203 5.70728L12.9413 1.93942C12.4725 1.57111 11.785 1.9037 11.785 2.49969L11.785 18.0354C11.785 18.1336 11.8654 18.214 11.9636 18.214L13.3029 18.214C13.4011 18.214 13.4814 18.1336 13.4814 18.0354Z" fill="black" fill-opacity="0.85"/>
</svg>
